<?xml version="1.0" encoding="UTF-8" standalone="no"?>
<svg xmlns:xlink="http://www.w3.org/1999/xlink" height="67.0px" width="62.0px" xmlns="http://www.w3.org/2000/svg">
  <g transform="matrix(1.0, 0.0, 0.0, 1.0, 31.0, -24.0)">
    <path d="M-30.0 54.4 L-30.0 50.0 -29.6 50.0 -30.0 54.4" fill="#000000" fill-rule="evenodd" stroke="none"/>
    <path d="M-29.6 50.0 Q-28.2 40.75 -21.25 33.75 -12.45 25.0 0.0 25.0 12.45 25.0 21.2 33.75 27.95 40.5 29.55 49.45 L29.65 50.0 30.0 50.0 30.0 55.0 30.0 90.0 -30.0 90.0 -30.0 55.0 -30.0 54.4 -29.6 50.0" fill="#ffffff" fill-rule="evenodd" stroke="none"/>
    <path d="M29.55 49.45 L30.0 50.0 M30.0 55.0 L30.0 90.0 -30.0 90.0 -30.0 55.0" fill="none" stroke="#ffffff" stroke-linecap="round" stroke-linejoin="round" stroke-width="2.0"/>
    <path d="M-29.6 50.0 Q-28.2 40.75 -21.25 33.75 -12.45 25.0 0.0 25.0 12.45 25.0 21.2 33.75 27.95 40.5 29.55 49.45 M30.0 50.0 L30.0 55.0 M-30.0 55.0 L-30.0 54.4 -29.6 50.0" fill="none" stroke="#ffffff" stroke-linecap="round" stroke-linejoin="round" stroke-width="2.0"/>
  </g>
</svg>
