<?xml version="1.0" encoding="UTF-8" standalone="no"?>
<svg xmlns:xlink="http://www.w3.org/1999/xlink" height="299.0px" width="315.4px" xmlns="http://www.w3.org/2000/svg">
  <g transform="matrix(1.0, 0.0, 0.0, 1.0, 0.0, 0.0)">
    <path d="M248.7 20.65 Q254.95 21.85 262.3 27.25 268.0 31.55 270.2 38.0 271.35 41.4 271.35 45.0 271.35 48.15 270.45 51.3 268.6 56.5 266.3 58.85 L262.9 62.45 Q259.15 65.9 253.25 68.55 L251.0 69.6 Q248.2 71.05 244.2 72.4 L240.65 73.45 233.35 75.85 230.75 76.9 Q228.7 77.65 227.85 78.15 L225.5 79.9 222.4 82.5 214.15 89.25 Q207.0 94.45 203.35 101.5 202.1 103.9 201.2 106.6 L200.85 107.65 Q199.5 111.15 199.45 113.5 199.45 115.7 200.9 119.15 L201.65 119.8 Q204.15 119.2 209.65 115.5 L213.65 112.6 217.6 109.7 Q222.1 106.3 226.95 102.9 L228.95 101.6 230.95 100.25 Q237.7 96.0 253.85 91.85 259.0 90.55 262.5 90.05 L270.25 89.3 271.85 89.15 Q285.05 88.1 294.8 93.25 297.5 94.7 299.8 96.85 306.9 103.65 307.8 113.05 L307.85 114.7 Q307.8 122.8 302.35 128.6 300.5 130.5 297.9 132.0 292.95 134.5 289.15 135.5 L284.2 137.1 279.65 138.25 279.25 138.3 Q274.05 139.5 271.95 140.25 269.8 141.0 269.05 141.45 L268.8 141.55 267.7 142.1 267.35 142.25 Q266.05 142.8 261.5 145.05 L255.45 148.05 Q251.95 149.75 248.3 152.4 L242.0 157.4 236.55 162.1 Q234.65 164.15 233.8 165.65 L234.8 165.05 Q237.35 163.35 242.75 160.75 248.55 158.05 254.6 155.5 258.05 154.0 261.6 152.8 271.05 149.55 282.15 148.1 L282.7 148.05 294.95 147.6 Q302.0 148.1 308.3 154.1 314.65 160.75 315.35 172.2 L315.35 177.25 Q314.65 186.6 308.1 192.35 301.9 197.0 296.35 198.4 L293.45 199.45 289.05 200.8 281.05 202.45 280.95 202.45 Q279.7 202.55 277.75 203.35 L277.25 203.5 269.0 206.1 Q263.05 207.95 260.4 209.15 L255.1 212.1 254.05 212.75 252.3 213.85 250.55 214.95 243.35 219.45 Q242.15 220.15 240.5 222.35 238.3 227.2 234.8 231.15 L228.2 238.0 225.05 241.0 225.1 241.0 Q221.05 245.45 217.2 250.5 212.15 257.15 205.9 263.6 200.5 268.95 193.15 274.0 L176.85 284.15 Q165.05 290.45 152.15 293.5 L148.15 294.65 142.55 296.2 135.7 297.6 127.6 298.6 119.15 299.0 111.75 298.0 Q106.5 296.95 100.9 293.7 L93.65 288.2 Q87.25 283.35 84.65 280.95 L83.8 280.05 81.1 276.95 Q68.65 276.85 57.2 273.1 38.35 266.85 27.3 253.1 21.5 245.8 18.55 236.9 15.95 229.15 15.15 220.15 14.75 215.35 14.75 210.65 14.8 202.65 15.5 195.25 L15.55 193.55 15.45 191.15 Q13.9 181.5 9.1 170.75 L7.35 166.45 Q5.15 161.2 3.25 154.65 0.65 145.05 0.15 134.15 L0.0 128.75 Q0.0 114.65 3.4 101.6 5.35 94.05 8.2 87.8 11.95 79.95 17.65 73.05 24.3 65.0 31.95 60.8 35.7 58.6 41.2 57.25 46.7 55.9 53.4 57.15 67.65 60.6 70.2 75.95 70.65 79.05 70.6 81.55 70.25 89.45 68.3 93.7 L67.35 96.75 64.75 104.05 Q63.0 108.7 62.0 112.0 60.95 114.8 60.45 122.8 60.05 128.4 63.55 132.05 L64.75 132.8 66.45 131.35 67.6 130.35 Q72.25 126.65 75.5 122.8 79.75 116.6 81.25 110.9 L81.35 110.45 81.9 102.25 82.0 99.45 82.15 95.65 82.4 88.6 82.55 84.8 Q82.85 72.1 84.65 63.0 86.7 52.85 90.85 46.05 L92.2 44.0 93.55 41.9 Q99.3 33.55 107.1 26.05 115.45 18.1 125.25 11.95 132.1 7.7 139.15 4.65 142.75 3.05 146.15 2.0 157.0 -1.25 165.8 0.75 171.85 2.15 176.1 6.4 182.4 12.8 182.5 22.45 182.4 31.7 176.55 39.05 173.15 43.1 168.05 47.5 162.95 51.9 158.05 55.75 L154.2 58.9 Q150.8 61.65 148.25 64.9 145.7 68.1 143.55 73.4 143.2 74.25 143.0 76.35 L142.8 77.55 142.6 78.75 142.6 79.5 142.65 81.25 146.2 76.95 148.45 74.15 149.5 72.8 150.4 71.55 152.15 69.45 152.7 68.85 153.7 67.8 Q157.95 63.15 163.2 58.05 L172.45 49.65 177.85 44.9 Q185.3 38.55 195.35 33.35 206.6 27.55 215.45 24.8 224.7 21.95 233.8 20.6 L235.25 20.45 236.75 20.25 237.0 20.2 248.7 20.65" fill="#f90897" fill-rule="evenodd" stroke="none"/>
  </g>
</svg>
