<?xml version="1.0" encoding="UTF-8" standalone="no"?>
<svg xmlns:xlink="http://www.w3.org/1999/xlink" height="435.0px" width="434.1px" xmlns="http://www.w3.org/2000/svg">
  <g transform="matrix(1.0, 0.0, 0.0, 1.0, 0.0, 0.0)">
    <path d="M430.7 258.25 L322.4 244.55 423.9 284.7 318.15 257.5 413.85 310.1 312.35 269.9 400.7 334.0 305.05 281.4 384.65 356.1 296.35 291.95 365.95 376.05 286.4 301.3 344.9 393.45 275.35 309.3 321.85 408.05 263.35 315.9 297.1 419.7 250.65 320.9 271.15 428.15 237.45 324.3 244.3 433.25 223.9 326.0 217.05 435.0 210.25 326.0 189.8 433.25 196.7 324.3 162.95 428.15 183.45 320.9 137.0 419.7 170.75 315.9 112.3 408.05 158.8 309.3 89.2 393.45 147.75 301.3 68.2 376.05 137.8 291.95 49.5 356.1 129.1 281.4 33.45 334.0 121.75 269.9 20.25 310.1 115.95 257.5 10.2 284.7 111.75 244.55 3.4 258.25 109.15 231.1 0.0 231.15 108.3 217.5 0.0 203.85 109.15 203.85 3.4 176.75 111.75 190.45 10.2 150.3 115.95 177.45 20.25 124.9 121.75 165.1 33.45 100.95 129.1 153.55 49.5 78.85 137.8 143.05 68.2 58.95 147.75 133.7 89.2 41.55 158.8 125.65 112.3 26.9 170.75 119.1 137.0 15.25 183.45 114.05 162.95 6.85 196.7 110.65 189.8 1.7 210.25 108.95 217.05 0.0 223.9 108.95 244.3 1.7 237.45 110.65 271.15 6.85 250.65 114.05 297.1 15.25 263.35 119.1 321.85 26.9 275.35 125.65 344.9 41.55 286.4 133.7 365.95 58.95 296.35 143.05 384.65 78.85 305.05 153.55 400.7 100.95 312.35 165.1 413.85 124.9 318.15 177.45 423.9 150.3 322.4 190.45 430.7 176.75 324.95 203.85 434.1 203.85 325.8 217.5 434.1 231.15 324.95 231.1 430.7 258.25" fill="#ffffff" fill-rule="evenodd" stroke="none"/>
  </g>
</svg>
