<?xml version="1.0" encoding="UTF-8" standalone="no"?>
<svg xmlns:xlink="http://www.w3.org/1999/xlink" height="20.0px" width="20.0px" xmlns="http://www.w3.org/2000/svg">
  <g transform="matrix(1.0, 0.0, 0.0, 1.0, 10.0, 10.0)">
    <path d="M7.05 -7.1 Q10.0 -4.15 10.0 0.0 10.0 4.15 7.05 7.05 4.15 10.0 0.0 10.0 -4.15 10.0 -7.1 7.05 -10.0 4.15 -10.0 0.0 -10.0 -4.15 -7.1 -7.1 -4.15 -10.0 0.0 -10.0 4.15 -10.0 7.05 -7.1 M0.15 -3.6 L0.15 -1.05 -1.95 -1.05 -1.95 1.25 0.2 1.25 0.2 3.9 -3.05 3.9 -3.05 6.15 2.4 6.15 2.4 -5.85 -3.05 -5.85 -3.05 -3.6 0.15 -3.6" fill="#ffffff" fill-rule="evenodd" stroke="none"/>
    <path d="M0.15 -3.6 L-3.05 -3.6 -3.05 -5.85 2.4 -5.85 2.4 6.15 -3.05 6.15 -3.05 3.9 0.2 3.9 0.2 1.25 -1.95 1.25 -1.95 -1.05 0.15 -1.05 0.15 -3.6" fill="#000000" fill-rule="evenodd" stroke="none"/>
  </g>
</svg>
