<?xml version="1.0" encoding="UTF-8" standalone="no"?>
<svg xmlns:xlink="http://www.w3.org/1999/xlink" height="480.0px" width="640.0px" xmlns="http://www.w3.org/2000/svg">
  <g transform="matrix(1.0, 0.0, 0.0, 1.0, 0.0, 0.0)">
    <path d="M640.0 0.0 L640.0 480.0 520.0 480.0 520.0 0.0 640.0 0.0" fill="#0099ff" fill-rule="evenodd" stroke="none"/>
    <path d="M120.0 0.0 L120.0 480.0 0.0 480.0 0.0 0.0 120.0 0.0" fill="#66ccff" fill-rule="evenodd" stroke="none"/>
    <path d="M578.3 33.85 L578.3 43.4 579.65 43.4 579.65 33.85 578.3 33.85 M574.6 33.85 L570.55 33.85 570.55 43.35 574.7 43.35 574.7 46.1 567.8 46.1 567.8 31.15 574.6 31.15 574.6 33.85 M586.25 46.1 L583.4 46.1 583.4 31.15 590.25 31.15 590.25 40.05 587.15 40.05 590.25 46.1 588.95 46.1 588.25 46.1 587.95 46.1 587.65 46.1 586.2 43.4 586.25 46.1 M582.45 46.1 L575.55 46.1 575.55 31.15 582.45 31.15 582.45 46.1 M586.2 37.15 L587.45 37.15 587.45 33.95 586.2 33.95 586.2 37.15 M598.0 33.9 L594.0 33.9 594.0 37.1 596.65 37.1 596.65 40.0 594.0 40.0 594.0 43.3 598.0 43.3 598.0 46.1 591.2 46.1 591.2 31.15 598.0 31.15 598.0 33.9 M566.8 31.15 L566.8 33.9 562.8 33.9 562.8 37.1 566.8 37.1 566.8 46.1 560.0 46.1 560.0 43.35 564.0 43.35 564.0 40.0 560.0 40.0 560.0 31.15 566.8 31.15 M552.7 122.55 L552.7 128.65 555.35 128.65 555.35 122.55 558.1 122.55 558.1 137.5 555.4 137.5 555.4 131.55 552.75 131.55 552.75 137.5 550.0 137.5 550.0 122.55 552.7 122.55 M561.65 122.55 L561.65 137.5 559.0 137.5 559.0 122.55 561.65 122.55 M562.55 128.8 L571.45 128.8 571.45 131.8 562.55 131.8 562.55 128.8 M610.35 137.5 L603.55 137.5 603.55 122.55 610.35 122.55 610.35 125.3 606.35 125.3 606.35 128.5 609.0 128.5 609.0 131.4 606.35 131.4 606.35 134.7 610.35 134.7 610.35 137.5 M602.6 122.55 L602.6 131.45 599.5 131.45 602.6 137.5 601.3 137.5 600.6 137.5 600.3 137.5 600.0 137.5 598.55 134.8 598.6 137.5 595.75 137.5 595.75 122.55 602.6 122.55 M594.8 122.55 L594.8 137.5 587.9 137.5 587.9 122.55 594.8 122.55 M579.15 122.55 L579.15 125.3 575.15 125.3 575.15 128.5 579.15 128.5 579.15 137.5 572.35 137.5 572.35 134.75 576.35 134.75 576.35 131.4 572.35 131.4 572.35 122.55 579.15 122.55 M586.95 122.55 L586.95 125.25 582.9 125.25 582.9 134.75 587.05 134.75 587.05 137.5 580.15 137.5 580.15 122.55 586.95 122.55 M598.55 125.35 L598.55 128.55 599.8 128.55 599.8 125.35 598.55 125.35 M592.0 134.8 L592.0 125.25 590.65 125.25 590.65 134.8 592.0 134.8" fill="#ffffff" fill-rule="evenodd" stroke="none"/>
    <path d="M120.0 479.0 L520.0 479.0 M120.0 5.0 L520.0 5.0" fill="none" stroke="#ffffff" stroke-linecap="round" stroke-linejoin="round" stroke-width="0.05"/>
    <path d="M349.0 395.0 L355.0 395.0 M337.0 395.0 L343.0 395.0 M325.0 395.0 L331.0 395.0 M397.0 395.0 L403.0 395.0 M385.0 395.0 L391.0 395.0 M373.0 395.0 L379.0 395.0 M361.0 395.0 L367.0 395.0 M433.0 395.0 L439.0 395.0 M421.0 395.0 L427.0 395.0 M409.0 395.0 L415.0 395.0 M469.0 395.0 L475.0 395.0 M457.0 395.0 L463.0 395.0 M445.0 395.0 L451.0 395.0 M517.0 395.0 L520.0 395.0 M505.0 395.0 L511.0 395.0 M493.0 395.0 L499.0 395.0 M481.0 395.0 L487.0 395.0 M145.0 395.0 L151.0 395.0 M133.0 395.0 L139.0 395.0 M121.0 395.0 L127.0 395.0 M193.0 395.0 L199.0 395.0 M181.0 395.0 L187.0 395.0 M169.0 395.0 L175.0 395.0 M229.0 395.0 L235.0 395.0 M217.0 395.0 L223.0 395.0 M205.0 395.0 L211.0 395.0 M277.0 395.0 L283.0 395.0 M265.0 395.0 L271.0 395.0 M253.0 395.0 L259.0 395.0 M313.0 395.0 L319.0 395.0 M301.0 395.0 L307.0 395.0 M289.0 395.0 L295.0 395.0 M241.0 395.0 L247.0 395.0 M157.0 395.0 L163.0 395.0" fill="none" stroke="#ffffff" stroke-linecap="round" stroke-linejoin="round" stroke-width="1.0"/>
  </g>
</svg>
