<?xml version="1.0" encoding="UTF-8" standalone="no"?>
<svg xmlns:xlink="http://www.w3.org/1999/xlink" height="20.0px" width="20.0px" xmlns="http://www.w3.org/2000/svg">
  <g transform="matrix(1.0, 0.0, 0.0, 1.0, 10.0, 10.0)">
    <path d="M7.05 -7.1 Q10.0 -4.15 10.0 0.0 10.0 4.15 7.05 7.05 4.15 10.0 0.0 10.0 -4.15 10.0 -7.1 7.05 -10.0 4.15 -10.0 0.0 -10.0 -4.15 -7.1 -7.1 -4.15 -10.0 0.0 -10.0 4.15 -10.0 7.05 -7.1 M0.2 -3.6 L0.2 -1.05 -3.0 -1.05 -3.0 6.15 2.45 6.15 2.45 3.85 -0.8 3.85 -0.8 1.2 2.45 1.2 2.45 -5.85 -3.0 -5.85 -3.0 -3.6 0.2 -3.6" fill="#ffffff" fill-rule="evenodd" stroke="none"/>
    <path d="M0.2 -3.6 L-3.0 -3.6 -3.0 -5.85 2.45 -5.85 2.45 1.2 -0.8 1.2 -0.8 3.85 2.45 3.85 2.45 6.15 -3.0 6.15 -3.0 -1.05 0.2 -1.05 0.2 -3.6" fill="#000000" fill-rule="evenodd" stroke="none"/>
  </g>
</svg>
